<svg width="64" height="64" viewBox="0 0 64 64" fill="none" xmlns="http://www.w3.org/2000/svg">
  <defs>
    <linearGradient id="workvertMarkGlow" x1="12" y1="54" x2="55" y2="10" gradientUnits="userSpaceOnUse">
      <stop stop-color="#22C55E"/>
      <stop offset="0.52" stop-color="#14B8A6"/>
      <stop offset="1" stop-color="#38BDF8"/>
    </linearGradient>
    <linearGradient id="workvertTagFill" x1="18" y1="45" x2="46" y2="17" gradientUnits="userSpaceOnUse">
      <stop stop-color="#052E1A"/>
      <stop offset="1" stop-color="#0F3B47"/>
    </linearGradient>
    <filter id="workvertSoftGlow" x="-18" y="-18" width="100" height="100" color-interpolation-filters="sRGB">
      <feDropShadow dx="0" dy="0" stdDeviation="2.6" flood-color="#22C55E" flood-opacity="0.38"/>
    </filter>
  </defs>
  <rect x="4" y="4" width="56" height="56" rx="17" fill="#07111E"/>
  <rect x="5.5" y="5.5" width="53" height="53" rx="15.5" stroke="url(#workvertMarkGlow)" stroke-width="3"/>
  <path d="M19 32.2C19 24.9 24.9 19 32.2 19C37.6 19 42.2 22.2 44.3 26.8" stroke="#38BDF8" stroke-width="2.4" stroke-linecap="round" opacity="0.42"/>
  <path d="M15.5 31.8C15.5 22.8 22.8 15.5 31.8 15.5C38.8 15.5 44.7 19.9 47 26.1" stroke="#22C55E" stroke-width="2.4" stroke-linecap="round" opacity="0.36"/>
  <path d="M18.6 29.2L30 17.8H43.1L51.2 25.9V39L35.9 54.3L18.6 37V29.2Z" fill="url(#workvertTagFill)" stroke="url(#workvertMarkGlow)" stroke-width="3" stroke-linejoin="round" filter="url(#workvertSoftGlow)"/>
  <circle cx="39.5" cy="25.4" r="3.2" fill="#E8F7FF"/>
  <path d="M28 38.3L33 43.1L43.8 31.5" stroke="#FACC15" stroke-width="4.4" stroke-linecap="round" stroke-linejoin="round"/>
  <path d="M31.9 19.8L47.6 25.8" stroke="#E8F7FF" stroke-width="2.2" stroke-linecap="round" opacity="0.62"/>
</svg>
